<svg width="24px" height="24px" viewBox="0 0 24 24" fill="white" xmlns="http://www.w3.org/2000/svg" color="white" style="padding: 2px; align-self: center;"><path fill-rule="evenodd" clip-rule="evenodd" d="M13.1578 14.5722C12.1067 15.3197 10.8214 15.7592 9.43346 15.7592C5.88036 15.7592 3 12.8788 3 9.32573C3 5.77263 5.88036 2.89227 9.43346 2.89227C12.9866 2.89227 15.8669 5.77263 15.8669 9.32573C15.8669 10.7691 15.3916 12.1015 14.5889 13.1749L20.0709 18.6569C20.4614 19.0474 20.4614 19.6806 20.0709 20.0711C19.6804 20.4617 19.0472 20.4617 18.6567 20.0711L13.1578 14.5722ZM13.8669 9.32573C13.8669 11.7743 11.882 13.7592 9.43346 13.7592C6.98493 13.7592 5 11.7743 5 9.32573C5 6.8772 6.98493 4.89227 9.43346 4.89227C11.882 4.89227 13.8669 6.8772 13.8669 9.32573Z" fill="currentColor"/></svg>